<?xml version="1.0" standalone="no"?>
<!DOCTYPE svg PUBLIC "-//W3C//DTD SVG 20010904//EN"
 "http://www.w3.org/TR/2001/REC-SVG-20010904/DTD/svg10.dtd">
<svg version="1.0" xmlns="http://www.w3.org/2000/svg"
 width="400000pt" height="300000pt" viewBox="0 0 3000.000000 2000.000000"
 preserveAspectRatio="xMidYMid meet">

<g transform="translate(0.000000,2000.000000) scale(0.100000,-0.100000)"
fill="#0000FF" stroke="none">
<path d="M19910 12834 c-1717 -994 -2719 -1573 -4035 -2332 -2162 -1246 -2570
-1483 -2574 -1493 -3 -11 66 -120 138 -214 64 -84 232 -256 321 -328 285 -230
629 -376 994 -423 188 -24 454 -15 626 21 526 110 974 409 1264 845 31 46 56
88 56 92 0 4 5 8 11 8 10 0 1684 -964 1702 -980 10 -9 -89 -172 -187 -310
-248 -350 -586 -687 -951 -947 -649 -463 -1468 -723 -2281 -723 -1261 0 -2441
607 -3201 1645 -65 89 -203 305 -203 317 0 6 -8 7 -17 3 -19 -7 -2323 -1334
-2336 -1345 -25 -21 194 -280 293 -347 45 -30 4934 -2854 4999 -2888 120 -61
289 -96 471 -96 201 0 364 37 506 116 144 79 4923 2840 4964 2868 72 48 191
175 253 268 69 105 126 224 164 344 l28 90 0 2975 0 2975 -28 89 c-29 92 -105
267 -116 265 -3 0 -391 -223 -861 -495z m-1400 -2394 l0 -220 220 0 220 0 0
-220 0 -220 -220 0 -220 0 0 -220 0 -220 -220 0 -220 0 0 220 0 220 -220 0
-220 0 0 220 0 220 220 0 220 0 0 220 0 220 220 0 220 0 0 -220z m1650 0 l0
-220 220 0 220 0 0 -220 0 -220 -220 0 -220 0 0 -220 0 -220 -220 0 -220 0 0
220 0 220 -220 0 -220 0 0 220 0 220 220 0 220 0 0 220 0 220 220 0 220 0 0
-220z"/>
</g>
</svg>